# Blender 4.0.2
# www.blender.org
mtllib PickAxe.mtl
o Pickaxe
v 0.010000 0.742725 -0.297079
v 0.010000 1.013895 -0.297079
v 0.010000 0.742725 -0.277079
v 0.010000 1.013895 -0.277079
v -0.010000 0.742725 -0.297079
v -0.010000 1.013895 -0.297079
v -0.010000 0.742725 -0.277079
v -0.010000 1.013895 -0.277079
v -0.010219 0.993872 -0.297276
v -0.010219 1.012778 -0.297276
v -0.010219 0.993872 -0.276386
v -0.010219 1.012778 -0.276386
v 0.010219 0.993872 -0.297276
v 0.010219 1.012778 -0.297276
v 0.010219 0.993872 -0.276386
v 0.010219 1.012778 -0.276386
v -0.010219 1.009882 -0.244142
v -0.010219 1.007953 -0.244142
v 0.010219 1.007953 -0.244142
v 0.010219 1.009882 -0.244142
v -0.000089 1.013230 -0.377661
v -0.000089 1.013421 -0.377661
v 0.000089 1.013421 -0.377661
v 0.000089 1.013230 -0.377661
vn 1.0000 -0.0000 -0.0000
vn -0.0000 -0.0000 1.0000
vn -1.0000 -0.0000 -0.0000
vn -0.0000 -0.0000 -1.0000
vn -0.0000 -1.0000 -0.0000
vn -0.0000 1.0000 -0.0000
vn -0.0000 -0.9960 -0.0895
vn 0.9922 -0.0000 0.1250
vn -0.0000 0.9164 -0.4002
vn -0.0000 0.9722 0.2341
vn -0.0000 -1.0000 -0.0080
vn -0.9922 -0.0000 0.1250
vt 0.375000 0.000000
vt 0.625000 0.000000
vt 0.625000 0.250000
vt 0.375000 0.250000
vt 0.625000 0.500000
vt 0.375000 0.500000
vt 0.625000 0.750000
vt 0.375000 0.750000
vt 0.625000 1.000000
vt 0.375000 1.000000
vt 0.125000 0.500000
vt 0.125000 0.750000
vt 0.875000 0.500000
vt 0.875000 0.750000
s 0
usemtl Wood.001
f 1/1/1 2/2/1 4/3/1 3/4/1
f 3/4/2 4/3/2 8/5/2 7/6/2
f 7/6/3 8/5/3 6/7/3 5/8/3
f 5/8/4 6/7/4 2/9/4 1/10/4
f 3/11/5 7/6/5 5/8/5 1/12/5
f 8/5/6 4/13/6 2/14/6 6/7/6
usemtl iron
f 9/1/1 10/2/1 12/3/1 11/4/1
f 12/13/7 16/5/7 20/5/7 17/13/7
f 15/6/3 16/5/3 14/7/3 13/8/3
f 10/2/8 9/1/8 21/1/8 22/2/8
f 11/11/6 15/6/6 13/8/6 9/12/6
f 16/5/5 12/13/5 10/14/5 14/7/5
f 18/4/4 17/3/4 20/5/4 19/6/4
f 11/4/1 12/3/1 17/3/1 18/4/1
f 16/5/3 15/6/3 19/6/3 20/5/3
f 15/6/9 11/11/9 18/11/9 19/6/9
f 24/8/2 23/7/2 22/9/2 21/10/2
f 9/12/10 13/8/10 24/8/10 21/12/10
f 14/7/11 10/14/11 22/14/11 23/7/11
f 13/8/12 14/7/12 23/7/12 24/8/12
